<svg xmlns="http://www.w3.org/2000/svg" viewBox="0 0 1400 900" role="img" aria-label="Modern clinic interior">
  <defs>
    <linearGradient id="bg" x1="0" x2="1" y1="0" y2="1">
      <stop offset="0" stop-color="#e0f2fe"/>
      <stop offset="1" stop-color="#f8fafc"/>
    </linearGradient>
    <linearGradient id="floor" x1="0" x2="0" y1="0" y2="1">
      <stop offset="0" stop-color="#cbd5e1"/>
      <stop offset="1" stop-color="#e2e8f0"/>
    </linearGradient>
  </defs>
  <rect width="1400" height="900" fill="url(#bg)"/>
  <rect y="560" width="1400" height="340" fill="url(#floor)"/>
  <rect x="120" y="170" width="360" height="300" rx="24" fill="#ffffff" stroke="#cbd5e1"/>
  <rect x="170" y="230" width="260" height="16" rx="8" fill="#94a3b8"/>
  <rect x="170" y="270" width="200" height="16" rx="8" fill="#cbd5e1"/>
  <rect x="170" y="310" width="240" height="16" rx="8" fill="#cbd5e1"/>
  <rect x="560" y="120" width="720" height="420" rx="30" fill="#ffffff" stroke="#cbd5e1"/>
  <rect x="620" y="200" width="200" height="280" rx="20" fill="#ecfeff" stroke="#99f6e4"/>
  <rect x="860" y="200" width="350" height="120" rx="20" fill="#f0fdfa" stroke="#99f6e4"/>
  <rect x="860" y="350" width="350" height="130" rx="20" fill="#f8fafc" stroke="#cbd5e1"/>
  <circle cx="715" cy="340" r="42" fill="#0d9488"/>
  <rect x="695" y="315" width="40" height="50" rx="8" fill="#ffffff"/>
  <rect x="688" y="332" width="54" height="16" rx="6" fill="#0d9488"/>
  <path d="M350 560h700" stroke="#94a3b8" stroke-width="14" stroke-linecap="round"/>
  <circle cx="350" cy="560" r="26" fill="#94a3b8"/>
  <circle cx="1050" cy="560" r="26" fill="#94a3b8"/>
</svg>
